<svg id="Layer_1" data-name="Layer 1" xmlns="http://www.w3.org/2000/svg" viewBox="0 0 71.83 28.51"><defs><style>.cls-1{fill:#1fbc93;}.cls-2{fill:#1fbb93;}</style></defs><path class="cls-1" d="M373.12,347.4c-.09,0-.07.09-.1.15a1,1,0,0,1-1.93-.6,1,1,0,0,1,1.21-.72,1,1,0,0,1,.72.65c0,.06,0,.15.1.17Zm-1.06-1a.81.81,0,0,0-.82.82.83.83,0,1,0,.82-.82Z" transform="translate(-301.28 -346.18)"/><path class="cls-1" d="M301.33,360.54l-.05,0V346.19h.05Z" transform="translate(-301.28 -346.18)"/><path class="cls-1" d="M333.84,372c1,0,2.11-.1,3.24-.2.87-.08,1.73-.22,2.58-.37.58-.1,1.15-.24,1.73-.38s1.41-.38,2.11-.59,1.43-.49,2.14-.77,1.59-.68,2.38-1.06a35,35,0,0,0,3.37-1.9,41.52,41.52,0,0,0,3.81-2.81c.3-.24.21-.25,0-.42a11.35,11.35,0,0,0-1.27-.81c-.11-.06-.23-.12-.26-.27a.27.27,0,0,1,.16-.35,2.22,2.22,0,0,1,1.41-.17,3.21,3.21,0,0,1,2.25,1.55,3,3,0,0,1,.39,2.14,1.74,1.74,0,0,1-.13.36.34.34,0,0,1-.29.21.35.35,0,0,1-.28-.21,8.9,8.9,0,0,0-.78-1.24c-.13-.18-.16-.19-.31,0a27.52,27.52,0,0,1-2.46,2.49,28.87,28.87,0,0,1-4.86,3.51,29.66,29.66,0,0,1-3.39,1.68c-.83.34-1.67.64-2.53.91s-1.46.44-2.21.62-1.67.35-2.52.47-1.44.16-2.17.23a27.09,27.09,0,0,1-4.32,0c-.82-.05-1.65-.14-2.47-.26s-1.42-.23-2.12-.39-1.25-.29-1.87-.47-1.27-.38-1.89-.6-1.32-.51-2-.79q-1.24-.54-2.43-1.2c-.9-.5-1.77-1.05-2.62-1.64a27.38,27.38,0,0,1-4.62-4c-.17-.19-.35-.37-.51-.57s-.17-.11-.25,0a10.41,10.41,0,0,0-.77,1.22.33.33,0,0,1-.3.24c-.17,0-.26-.13-.32-.28a2.65,2.65,0,0,1,0-1.9,3.25,3.25,0,0,1,2-1.95,2.59,2.59,0,0,1,1.78,0c.15.06.29.13.31.32s-.13.29-.26.36a10.92,10.92,0,0,0-1.34.86c-.15.11-.14.18,0,.28a39.3,39.3,0,0,0,4,3,31.93,31.93,0,0,0,3.84,2.12c.77.35,1.54.69,2.33,1s1.63.56,2.47.81,1.64.44,2.48.61a26.13,26.13,0,0,0,3.07.47C331.38,371.89,332.53,372,333.84,372Z" transform="translate(-301.28 -346.18)"/><path class="cls-2" d="M352.71,359.19v3.25c0,.5,0,1,0,1.5,0,.17,0,.23-.22.23h-3.34c-.17,0-.21-.05-.21-.22V350c0-.2.05-.24.25-.24h3.29c.18,0,.23,0,.23.23,0,.36,0,.72,0,1.07.05,0,.07,0,.08,0a4.56,4.56,0,0,1,2.85-1.61,5.84,5.84,0,0,1,3.66.42,5.1,5.1,0,0,1,2.73,3.44,6.72,6.72,0,0,1-.34,4.67,5,5,0,0,1-4.59,3,5.57,5.57,0,0,1-3.14-.7A4.33,4.33,0,0,1,352.71,359.19Zm0-4a3.38,3.38,0,0,0,.15,1.09,2.83,2.83,0,0,0,2.55,2.07,2.8,2.8,0,0,0,2.84-1.74,3.76,3.76,0,0,0,.19-2.27,2.88,2.88,0,0,0-4.6-1.73A3.14,3.14,0,0,0,352.71,355.19Z" transform="translate(-301.28 -346.18)"/><path class="cls-2" d="M301.33,360.54V346.2h3.5c.18,0,.23,0,.23.22,0,1.5,0,3,0,4.48v.26a5.63,5.63,0,0,1,.67-.7,4.88,4.88,0,0,1,2.6-1.07,5.63,5.63,0,0,1,3.31.48,5.28,5.28,0,0,1,2.85,3.86,6.87,6.87,0,0,1,.14,1.43c0,1.74,0,3.47,0,5.2,0,.18-.05.22-.23.22h-3.29c-.19,0-.24,0-.24-.23,0-1.71,0-3.42,0-5.13a3.24,3.24,0,0,0-.83-2.35,2.87,2.87,0,0,0-4.85,1.29,3.56,3.56,0,0,0-.14,1c0,1.71,0,3.43,0,5.15,0,.2-.06.24-.25.24h-3.25A.58.58,0,0,1,301.33,360.54Z" transform="translate(-301.28 -346.18)"/><path class="cls-1" d="M326.52,359.2c-.18.19-.31.35-.46.49a4.7,4.7,0,0,1-2.66,1.24,5.81,5.81,0,0,1-3.22-.35,4.92,4.92,0,0,1-2.83-3.07,6.64,6.64,0,0,1,.33-5.43,5,5,0,0,1,4.43-2.73,6,6,0,0,1,2.38.34,4.41,4.41,0,0,1,1.84,1.25l.15.16h0c0-.38,0-.75,0-1.12,0-.16,0-.2.2-.2h3.36c.16,0,.21,0,.21.2,0,3.46,0,6.93,0,10.39,0,.15,0,.2-.19.2h-3.4c-.15,0-.18-.05-.18-.19C326.53,360,326.52,359.63,326.52,359.2Zm-5.82-4a3.73,3.73,0,0,0,.16,1.11,2.77,2.77,0,0,0,2.22,2,2.69,2.69,0,0,0,2.78-1.05,3.36,3.36,0,0,0,.57-2.89,2.85,2.85,0,0,0-4.53-1.8A3.12,3.12,0,0,0,320.7,355.17Z" transform="translate(-301.28 -346.18)"/><path class="cls-1" d="M342.2,359.25a5,5,0,0,1-1.56,1.2,5.74,5.74,0,0,1-6.41-1,5.63,5.63,0,0,1-1.48-3,6.67,6.67,0,0,1,.5-4.22,5,5,0,0,1,4.56-2.94,6.09,6.09,0,0,1,2.36.34,4.48,4.48,0,0,1,1.84,1.25c.05.06.08.14.19.18,0-.39,0-.76,0-1.13,0-.16.05-.2.21-.2h3.35c.16,0,.21,0,.21.2v10.39c0,.15,0,.2-.19.2h-3.4c-.15,0-.18-.05-.17-.19Zm-5.83-4.08a4.16,4.16,0,0,0,.17,1.12,2.75,2.75,0,0,0,2.22,2,2.71,2.71,0,0,0,2.78-1.05,3.4,3.4,0,0,0,.57-2.88,2.86,2.86,0,0,0-4.54-1.81A3.13,3.13,0,0,0,336.37,355.17Z" transform="translate(-301.28 -346.18)"/><path class="cls-1" d="M364.38,355.2c0-1.73,0-3.45,0-5.18,0-.19.05-.23.24-.23h3.31c.16,0,.22,0,.22.21q0,5.17,0,10.37c0,.16,0,.2-.21.2h-3.35c-.18,0-.21-.06-.21-.22Z" transform="translate(-301.28 -346.18)"/><path class="cls-1" d="M366.28,346.19a7.28,7.28,0,0,1,.93,0,.89.89,0,0,1,.86.82,2.8,2.8,0,0,1,0,1,.85.85,0,0,1-.8.75,8.45,8.45,0,0,1-2,0,.82.82,0,0,1-.77-.7,2.61,2.61,0,0,1,0-1.18.88.88,0,0,1,.77-.71A7,7,0,0,1,366.28,346.19Z" transform="translate(-301.28 -346.18)"/><path class="cls-1" d="M372.56,347.71c-.27.1-.37-.07-.48-.22s-.06-.16-.15-.13,0,.12,0,.18,0,.2-.14.2-.13-.1-.13-.19v-.74c0-.11,0-.16.15-.15s.24,0,.37,0a.29.29,0,0,1,.22.48c-.13.14-.08.22,0,.32A2.71,2.71,0,0,1,372.56,347.71Zm-.68-.71c0,.05,0,.14.1.14a.16.16,0,0,0,.18-.14c0-.11-.07-.14-.17-.15S371.88,346.91,371.88,347Z" transform="translate(-301.28 -346.18)"/></svg>